<svg xmlns="http://www.w3.org/2000/svg" width="187.183" height="179.904" viewBox="0 0 187.183 179.904">
  <g id="ico-arrow-down" transform="translate(183.442) rotate(90)">
    <g id="Rounded" transform="translate(0)">
      <g id="Navigation">
        <g id="_-Round-_-Navigation-_-subdirectory_arrow_right" data-name="-Round-/-Navigation-/-subdirectory_arrow_right">
          <g id="Group_1" data-name="Group 1">
            <path id="Path" d="M179.9,0H0V179.9H179.9Z" fill="none" fill-rule="evenodd" opacity="0.87"/>
            <path id="_-Icon-Color" data-name="🔹-Icon-Color" d="M157,53.532,106.679,3.214a11.031,11.031,0,1,0-15.6,15.6l31.641,31.531H10.986A11.019,11.019,0,0,0,0,61.332V171.2a10.986,10.986,0,1,0,21.973,0V72.318H122.719L91.078,103.85a11.031,11.031,0,1,0,15.6,15.6L157,69.132A11.074,11.074,0,0,0,157,53.532Z" transform="translate(14.556 -1.241)" fill="#7dc3fd" stroke="#7dc3fd" stroke-width="5" fill-rule="evenodd"/>
          </g>
        </g>
      </g>
    </g>
  </g>
</svg>
