<svg xmlns="http://www.w3.org/2000/svg" width="117.772" height="79.673" viewBox="0 0 117.772 79.673">
  <g id="ico-checks" transform="translate(-1.516 -1143.961)">
    <path id="rect2156" d="M-18.91-15.74H-38.549V63.934H79.224V-15.74ZM-32.075-9.163H-18.91v.013H72.735V44.018h.013V57.411H-32.078Z" transform="translate(40.065 1159.701)" fill="#7dc3fd"/>
    <path id="path2171" d="M23.244,1129.657v6.042H13.323v20.287H33.165v7.581H13.323v6.385h9.921v6.029h6.614v-6.029H39.78V1149.6H19.937v-7.518H39.78V1135.7H29.858v-6.042Z" transform="translate(65.085 30.877)" fill="#7dc3fd"/>
    <path id="path2181" d="M4.027,1131.7v6.524H23.6V1131.7H4.027Z" transform="translate(13.844 42.145)" fill="#7dc3fd"/>
    <path id="path2183" d="M8.554,1131.7v6.524H28.078V1131.7H8.554Z" transform="translate(38.797 42.145)" fill="#7dc3fd"/>
    <path id="path2195" d="M4.027,1135.789v6.524H23.6v-6.524H4.027Z" transform="translate(13.844 64.681)" fill="#7dc3fd"/>
    <path id="path2197" d="M8.554,1135.789v6.524H28.078v-6.524H8.554Z" transform="translate(38.797 64.681)" fill="#7dc3fd"/>
    <path id="path2189" d="M4.027,1133.745v6.525H23.6v-6.525H4.027Z" transform="translate(13.844 53.413)" fill="#7dc3fd"/>
    <path id="path2191" d="M8.554,1133.745v6.525H28.078v-6.525H8.554Z" transform="translate(38.797 53.413)" fill="#7dc3fd"/>
    <path id="path2223" d="M4.029,1129.657v6.574h49v-6.574h-49Z" transform="translate(13.854 30.877)" fill="#7dc3fd"/>
  </g>
</svg>
