<svg xmlns="http://www.w3.org/2000/svg" width="121.952" height="121.952" viewBox="0 0 121.952 121.952">
  <path id="ico-settings" d="M119.78,73.778l-4.563-4.9a.745.745,0,0,0,0-.149c.1-1.093.163-2.194.206-3.3.01-.318,0-.658,0-.976.009-.845,0-1.662-.041-2.478-.016-.357-.035-.689-.058-1.044-.019-.545-.047-1.083-.088-1.652l4.576-4.867C122,52.09,125.96,49,124.747,46.064l-5.01-12.157c-1.213-2.942-6.194-2.325-9.379-2.436l-6.681-.241c-.5-.6-1.049-1.178-1.572-1.761-.02-.022-.044-.056-.069-.087-.186-.195-.343-.407-.531-.6-.283-.308-.609-.6-.9-.9-.423-.426-.844-.859-1.278-1.271-.712-.685-1.463-1.331-2.2-1.972a1,1,0,0,0-.1-.078c-.04-.039-.076-.083-.116-.123l-.216-6.693c-.1-3.169.525-8.159-2.4-9.375L82.129,3.308C79.2,2.09,76.1,6.055,73.777,8.218l-4.9,4.572c-1.1-.11-2.188-.167-3.279-.209-.305-.012-.612-.006-.938,0-.7-.006-1.412-.027-2.135,0-.913.029-1.826.086-2.736.165-.117.006-.234.006-.326.014-.065.013-.114,0-.18.016L54.415,8.187C52.094,6.016,49,2.041,46.064,3.252L33.907,8.262c-2.942,1.212-2.32,6.2-2.437,9.381l-.237,6.691a2.324,2.324,0,0,0-.214.2q-1.2,1-2.345,2.07c-.281.276-.552.554-.827.833-.541.527-1.084,1.071-1.6,1.63-.266.29-.511.584-.77.88-.352.382-.7.759-1.033,1.162l-6.7.2c-3.169.1-8.159-.524-9.375,2.4L3.306,45.871C2.089,48.8,6.048,51.895,8.211,54.213l4.573,4.9c-.074.758-.107,1.512-.149,2.279,0,.071-.012.146-.01.217-.062,1.3-.093,2.6-.048,3.892.021.568.063,1.126.1,1.693.033.458.043.924.086,1.381a.737.737,0,0,0,.005.13L8.185,73.587c-2.172,2.317-6.15,5.4-4.939,8.337l5.01,12.157c1.213,2.944,6.209,2.331,9.385,2.447l6.687.227c.045.066.1.105.147.173.678.814,1.39,1.609,2.132,2.409.261.281.537.522.8.8.545.553,1.094,1.1,1.662,1.633.279.242.574.5.856.756.4.349.779.705,1.175,1.023l.2,6.7c.1,3.169-.52,8.171,2.4,9.388l12.16,5.062c2.928,1.219,6.023-2.743,8.341-4.906l4.9-4.562c.054,0,.106-.006.16,0,.631.07,1.257.094,1.883.126.188.016.37.017.548.036.294.009.576.032.86.042.336.007.671,0,1.007,0,.817.019,1.635,0,2.445-.035.353-.012.714-.039,1.063-.059.551-.024,1.082-.051,1.624-.083l4.879,4.57c2.324,2.183,5.4,6.151,8.337,4.938l12.158-5.01c2.943-1.214,2.335-6.2,2.447-9.385l.23-6.676c.573-.478,1.125-.976,1.658-1.462a1.959,1.959,0,0,1,.243-.217c.186-.176.385-.324.545-.493.324-.287.6-.6.9-.89.422-.427.87-.854,1.3-1.3.623-.669,1.25-1.369,1.856-2.1a1.21,1.21,0,0,0,.182-.205.96.96,0,0,0,.111-.11l6.691-.215c3.169-.1,8.171.521,9.388-2.4l5.062-12.16C125.91,79.2,121.942,76.1,119.78,73.778ZM90.75,64A26.75,26.75,0,1,1,64,37.25,26.751,26.751,0,0,1,90.75,64Z" transform="translate(-3.021 -3.027)" fill="#7dc3fd"/>
</svg>
