<svg xmlns="http://www.w3.org/2000/svg" width="66.649" height="66.649" viewBox="0 0 66.649 66.649">
  <g id="ico-bell" transform="translate(4 2)">
    <g id="Rounded" transform="translate(-4 -2)">
      <g id="Social" transform="translate(0 0)">
        <g id="_-Round-_-Social-_-notifications" data-name="-Round-/-Social-/-notifications">
          <g id="Group_4" data-name="Group 4">
            <path id="Path" d="M0,0H66.649V66.649H0Z" fill="none" fill-rule="evenodd"/>
            <path id="_-Icon-Color" data-name="🔹-Icon-Color" d="M25.481,56.652A5.57,5.57,0,0,0,31.035,51.1H19.927A5.553,5.553,0,0,0,25.481,56.652ZM42.144,39.99V26.1c0-8.525-4.554-15.662-12.5-17.551V6.666a4.166,4.166,0,0,0-8.331,0V8.554c-7.97,1.888-12.5,9-12.5,17.551V39.99L5.237,43.572a2.777,2.777,0,0,0,1.944,4.749H43.754a2.785,2.785,0,0,0,1.972-4.749Z" transform="translate(7.843 4.443)" fill="#7dc3fd" fill-rule="evenodd"/>
          </g>
        </g>
      </g>
    </g>
  </g>
</svg>
