<svg xmlns="http://www.w3.org/2000/svg" width="121.8" height="116" viewBox="0 0 121.8 116">
  <g id="ico-profile" transform="translate(-3.6 -6.5)">
    <g id="Group_2" data-name="Group 2">
      <path id="Path_1" data-name="Path 1" d="M64.3,71.6A32.55,32.55,0,1,0,31.7,39,32.606,32.606,0,0,0,64.3,71.6ZM65.7,39c13.2,0,39.321.111,22.6,0s-10.8,0-24,0-8.122-.111-24,0S52.5,39,65.7,39Z" fill="#7dc3fd"/>
      <path id="Path_2" data-name="Path 2" d="M7.9,122.5H121.1a4.268,4.268,0,0,0,4.3-4.3A40.949,40.949,0,0,0,84.5,77.3h-40A40.949,40.949,0,0,0,3.6,118.2a4.268,4.268,0,0,0,4.3,4.3Zm4.6-8.6H81.661c10.578,0,29.1.442,36.123,0,3.4-.22-2.03-5.609-1.284,0H12.5C14.6,98.2-3.9,113.9,12.5,113.9Z" fill="#7dc3fd"/>
    </g>
  </g>
</svg>
