<svg xmlns="http://www.w3.org/2000/svg" width="114.565" height="114.565" viewBox="0 0 114.565 114.565">
  <g id="ico-money" transform="translate(-14.461 56.251) rotate(-45)">
    <path id="Path_3" data-name="Path 3" d="M17.313,56.946a1.453,1.453,0,0,0-2.906,0c0,4.053,3.59,7.411,8.252,8v6.205a1.453,1.453,0,1,0,2.906,0V64.94c4.656-.592,8.238-3.946,8.238-7.993s-3.583-7.4-8.238-7.986V38.614c3.045.51,5.332,2.585,5.332,5.064a1.453,1.453,0,0,0,2.906,0c0-4.049-3.583-7.4-8.238-7.992V29.473a1.453,1.453,0,0,0-2.906,0v6.213c-4.663.588-8.252,3.942-8.252,7.992s3.589,7.4,8.252,7.985V62.015C19.607,61.507,17.313,59.429,17.313,56.946Zm13.584,0c0,2.477-2.287,4.552-5.332,5.065V51.888C28.61,52.4,30.9,54.472,30.9,56.946ZM17.313,43.678c0-2.479,2.293-4.555,5.346-5.064V48.736C19.606,48.227,17.313,46.154,17.313,43.678Z" fill="#c7e4fb" stroke="#c7e4fb" stroke-width="2"/>
    <path id="Path_4" data-name="Path 4" d="M96.51,20.412H3.492a1.452,1.452,0,0,0-1.453,1.453v59.19a1.452,1.452,0,0,0,1.453,1.453H96.51a1.452,1.452,0,0,0,1.453-1.453V21.865A1.453,1.453,0,0,0,96.51,20.412ZM95.057,79.6H4.945V23.318H95.056V79.6Z" fill="#c7e4fb" stroke="#c7e4fb" stroke-width="2"/>
    <path id="Path_5" data-name="Path 5" d="M45.77,40.236H88.052a1.453,1.453,0,1,0,0-2.906H45.77a1.453,1.453,0,1,0,0,2.906Z" fill="#c7e4fb" stroke="#c7e4fb" stroke-width="2"/>
    <path id="Path_6" data-name="Path 6" d="M45.77,51.762H88.052a1.453,1.453,0,1,0,0-2.906H45.77a1.453,1.453,0,1,0,0,2.906Z" fill="#c7e4fb" stroke="#c7e4fb" stroke-width="2"/>
    <path id="Path_7" data-name="Path 7" d="M45.77,65.583H88.052a1.453,1.453,0,1,0,0-2.906H45.77a1.453,1.453,0,0,0,0,2.906Z" fill="#c7e4fb" stroke="#c7e4fb" stroke-width="2"/>
  </g>
</svg>
