<svg xmlns="http://www.w3.org/2000/svg" width="187.183" height="179.904" viewBox="0 0 187.183 179.904">
  <g id="ico-arrow-up" transform="translate(2.5 179.904) rotate(-90)">
    <g id="Rounded" transform="translate(0 0)">
      <g id="Navigation">
        <g id="_-Round-_-Navigation-_-subdirectory_arrow_right" data-name="-Round-/-Navigation-/-subdirectory_arrow_right">
          <g id="Group_1" data-name="Group 1">
            <path id="Path" d="M179.9,179.9H0V0H179.9Z" transform="translate(0 1.038)" fill="none" fill-rule="evenodd" opacity="0.87"/>
            <path id="_-Icon-Color" data-name="🔹-Icon-Color" d="M157,128.652,106.679,178.97a11.031,11.031,0,0,1-15.6-15.6l31.641-31.531H10.986A11.019,11.019,0,0,1,0,120.851V10.986a10.986,10.986,0,1,1,21.973,0v98.878H122.719L91.078,78.334a11.031,11.031,0,1,1,15.6-15.6L157,113.051A11.074,11.074,0,0,1,157,128.652Z" transform="translate(14.556)" fill="#7dc3fd" stroke="#7dc3fd" stroke-width="5" fill-rule="evenodd"/>
          </g>
        </g>
      </g>
    </g>
  </g>
</svg>
