<svg xmlns="http://www.w3.org/2000/svg" width="48" height="64" viewBox="0 0 48 64">
  <g id="ico-paper" transform="translate(0 0)">
    <g id="Layer_1" data-name="Layer 1">
      <path id="Path_15" data-name="Path 15" d="M47.79,15a2.68,2.68,0,0,0-.57-.87L33.89.78A2.68,2.68,0,0,0,33,.21,2.59,2.59,0,0,0,32,0H2.67A2.66,2.66,0,0,0,0,2.67V61.33A2.66,2.66,0,0,0,2.67,64H45.33A2.66,2.66,0,0,0,48,61.33V16A2.59,2.59,0,0,0,47.79,15ZM34.67,9.1l4.23,4.23H34.67Zm8,49.57H5.33V5.33h24V16A2.68,2.68,0,0,0,32,18.67H42.67Z" fill="#c7e4fb"/>
      <path id="Path_16" data-name="Path 16" d="M34.67,32H13.33a2.67,2.67,0,0,1,0-5.33H34.67a2.67,2.67,0,0,1,0,5.33Z" fill="#c7e4fb"/>
      <path id="Path_17" data-name="Path 17" d="M21.33,21.33h-8a2.67,2.67,0,0,1,0-5.33h8a2.67,2.67,0,1,1,0,5.33Z" fill="#c7e4fb"/>
      <path id="Path_18" data-name="Path 18" d="M34.67,42.67H13.33a2.67,2.67,0,1,1,0-5.34H34.67a2.67,2.67,0,0,1,0,5.34Z" fill="#c7e4fb"/>
      <path id="Path_19" data-name="Path 19" d="M34.67,53.33H13.33a2.67,2.67,0,0,1,0-5.33H34.67a2.67,2.67,0,0,1,0,5.33Z" fill="#c7e4fb"/>
    </g>
  </g>
</svg>
