<svg xmlns="http://www.w3.org/2000/svg" width="336.526" height="336.528" viewBox="0 0 336.526 336.528">
  <g id="ico-balance" transform="translate(0 0)">
    <path id="path820" d="M47.314,0A15.7,15.7,0,0,0,31.56,15.837a15.672,15.672,0,0,0,7.867,13.639L7.846,84.133H5.238A5.3,5.3,0,0,0,0,89.432a47.324,47.324,0,0,0,94.648,0,5.315,5.315,0,0,0-5.258-5.3H87.51L55.324,29.465a15.969,15.969,0,0,0,6.388-7.138l85.529,22.9c0,.1-.011.2-.011.3A20.988,20.988,0,0,0,163,65.873l-.02,202.3h-36.8a5.259,5.259,0,0,0-5.238,5.279v20.992H99.916a5.28,5.28,0,0,0-5.289,5.289v31.508a5.28,5.28,0,0,0,5.289,5.289h136.7a5.288,5.288,0,0,0,5.269-5.289V299.731a5.288,5.288,0,0,0-5.269-5.289H215.6V273.45a5.259,5.259,0,0,0-5.238-5.279H173.5l.02-202.288a20.949,20.949,0,0,0,13.094-10.1l86.8,23.262A15.816,15.816,0,0,0,281,92.421l-31.642,54.811h-2.229a5.308,5.308,0,0,0-5.279,5.32,47.34,47.34,0,0,0,94.679,0,5.311,5.311,0,0,0-5.289-5.32h-2.229L296.894,92.719a15.8,15.8,0,1,0-20.006-23.693c-29.159-7.937-59.733-15.992-87.593-23.457A21.1,21.1,0,0,0,173.521,25.08V5.321a5.258,5.258,0,1,0-10.516,0v19.77a20.824,20.824,0,0,0-12.992,9.941L62.543,11.586A15.858,15.858,0,0,0,47.314,0Zm0,10.6a5.262,5.262,0,0,1,5.279,5.238,5.258,5.258,0,0,1-10.517,0A5.214,5.214,0,0,1,47.314,10.6ZM262.892,32.113v-.881c-.019-.08.018-.134,0-.623-.017-.238-.044-1.311,0-2.562.03-.9,0-1.891,0-3.125a17.209,17.209,0,0,0,0-2.594v7.138c0-1.942-.038.024,0,1.767v.881c.035.041.723-.009,0,0Zm42.074-16.549v1c0,.844,0,2.369,0,4.553V36.88h0c0-5.255,0-9.787,0-15.042,0-1.135.009-2.119,0-3.4l0-.828v-.575a5.7,5.7,0,0,0,0-1.1l0-.266v-.108Zm-21.107,11.17v.889c-.016.3.028.289,0,.845a4.931,4.931,0,0,0,0,.633c0,.217.065,1.224.065,2.531V47.4h0V31.984c0-1.717-.05-3-.065-4.361v-.889Zm-115.6,8.277a10.481,10.481,0,1,1,0,20.961,10.481,10.481,0,1,1,0-20.961ZM47.376,36.778l27.9,47.355H20.027ZM289.2,73.678a5.227,5.227,0,1,1-5.258,5.238A5.267,5.267,0,0,1,289.2,73.678Zm-.328,26.2L316.8,147.232H261.5Zm-246.8,47.369c-.06,2.411,0,2.387,0,5.3V168.3h0V152.541c0-2.981-.058-2.807,0-5.3ZM21.044,157.688c0,2.109,0,2.441,0,5.329v15.8h0v-15.8c0-2.969,0-3.345,0-5.329Zm42.076,0c-.021,3.274,0,2.444,0,5.333v15.8h0v-15.8c0-2.969-.021-1.688,0-5.333Z" transform="translate(0 0)" fill="#7dc3fd"/>
  </g>
</svg>
