<svg xmlns="http://www.w3.org/2000/svg" width="77.08" height="84.423" viewBox="0 0 77.08 84.423">
  <g id="ico-calendar" transform="translate(-11.462 -7.789)">
    <path id="Path_8" data-name="Path 8" d="M33.46,43.065H24.409a1.5,1.5,0,0,0-1.5,1.5V53.61a1.5,1.5,0,0,0,1.5,1.5H33.46a1.5,1.5,0,0,0,1.5-1.5V44.565A1.5,1.5,0,0,0,33.46,43.065Zm-1.5,9.046H25.909V46.066H31.96Z" fill="#c7e4fb" stroke="#c7e4fb" stroke-width="2"/>
    <path id="Path_9" data-name="Path 9" d="M54.571,43.065H45.517a1.5,1.5,0,0,0-1.5,1.5V53.61a1.5,1.5,0,0,0,1.5,1.5h9.054a1.5,1.5,0,0,0,1.5-1.5V44.565A1.5,1.5,0,0,0,54.571,43.065Zm-1.5,9.046H47.017V46.066h6.054Z" fill="#c7e4fb" stroke="#c7e4fb" stroke-width="2"/>
    <path id="Path_10" data-name="Path 10" d="M33.46,63.677H24.409a1.5,1.5,0,0,0-1.5,1.5v9.051a1.5,1.5,0,0,0,1.5,1.5H33.46a1.5,1.5,0,0,0,1.5-1.5V65.177A1.5,1.5,0,0,0,33.46,63.677Zm-1.5,9.051H25.909V66.677H31.96Z" fill="#c7e4fb" stroke="#c7e4fb" stroke-width="2"/>
    <path id="Path_11" data-name="Path 11" d="M54.571,63.677H45.517a1.5,1.5,0,0,0-1.5,1.5v9.051a1.5,1.5,0,0,0,1.5,1.5h9.054a1.5,1.5,0,0,0,1.5-1.5V65.177A1.5,1.5,0,0,0,54.571,63.677Zm-1.5,9.051H47.017V66.677h6.054Z" fill="#c7e4fb" stroke="#c7e4fb" stroke-width="2"/>
    <path id="Path_12" data-name="Path 12" d="M75.024,63.677H65.977a1.5,1.5,0,0,0-1.5,1.5v9.051a1.5,1.5,0,0,0,1.5,1.5h9.047a1.5,1.5,0,0,0,1.5-1.5V65.177A1.5,1.5,0,0,0,75.024,63.677Zm-1.5,9.051H67.477V66.677h6.047Z" fill="#c7e4fb" stroke="#c7e4fb" stroke-width="2"/>
    <path id="Path_13" data-name="Path 13" d="M86.04,16.132H76.929V14.393a5.6,5.6,0,1,0-11.205,0v1.739H55.592V14.393a5.6,5.6,0,1,0-11.208,0v1.739H34.255V14.393a5.6,5.6,0,1,0-11.208,0v1.739H13.962a1.5,1.5,0,0,0-1.5,1.5v72.08a1.5,1.5,0,0,0,1.5,1.5h72.08a1.5,1.5,0,0,0,1.5-1.5V17.632A1.5,1.5,0,0,0,86.04,16.132ZM68.723,14.393a2.6,2.6,0,1,1,5.2,0v7.676a2.6,2.6,0,1,1-5.205,0V14.393Zm-18.733-2.6a2.605,2.605,0,0,1,2.6,2.6v7.676a2.6,2.6,0,1,1-5.208,0V17.8a.809.809,0,0,0,0-.33V14.392A2.609,2.609,0,0,1,49.99,11.788Zm-23.944,2.6a2.6,2.6,0,1,1,5.208,0v7.676a2.6,2.6,0,1,1-5.208,0ZM84.54,88.211H15.46V19.131h7.585v2.937a5.6,5.6,0,1,0,11.208,0V19.131H44.382v2.937a5.6,5.6,0,1,0,11.208,0V19.131H65.722v2.937a5.6,5.6,0,1,0,11.205,0V19.131h7.611v69.08Z" fill="#c7e4fb" stroke="#c7e4fb" stroke-width="2"/>
    <path id="Path_14" data-name="Path 14" d="M76.683,38.729l-7.654,9.434-3.193-3.048a1.5,1.5,0,0,0-2.072,2.17l4.369,4.171a1.5,1.5,0,0,0,1.036.415c.032,0,.063,0,.1,0a1.5,1.5,0,0,0,1.07-.552l8.679-10.7a1.5,1.5,0,0,0-2.33-1.891Z" fill="#c7e4fb" stroke="#c7e4fb" stroke-width="2"/>
  </g>
</svg>
